<svg xmlns="http://www.w3.org/2000/svg" xmlns:xlink="http://www.w3.org/1999/xlink" width="26" height="26" viewBox="0 0 26 26">
  <defs>
    <linearGradient id="linear-gradient" x1="-0.968" y1="1.137" x2="0.989" y2="0.389" gradientUnits="objectBoundingBox">
      <stop offset="0" stop-color="#f63cd1"/>
      <stop offset="0.492" stop-color="#f63cd1"/>
      <stop offset="1" stop-color="#7f22ff"/>
    </linearGradient>
  </defs>
  <g id="about_us" transform="translate(-411.134 -97.134)">
    <rect id="Rectangle_13" data-name="Rectangle 13" width="26" height="26" transform="translate(411.134 97.134)" fill="#fff"/>
    <path id="icon" d="M154.058,165.764a2.874,2.874,0,0,0-.787-.159,2.966,2.966,0,0,0-3.148,2.777c0,.06-.006.12-.006.181a3.208,3.208,0,0,0,.048.538,2.964,2.964,0,1,0,3.893-3.337Zm7.928,2.166a8.666,8.666,0,0,0-.189-1.273v0a8.922,8.922,0,0,0-7.92-6.936,8.857,8.857,0,0,0-6.6,2.122,9,9,0,0,0-1.693,1.941,8.9,8.9,0,0,0,1.219,11.176v-6.346c0-.076,0-.153,0-.229a6.283,6.283,0,0,1,6.786-6.029c.11.008.217.02.325.036a6.11,6.11,0,0,1,2.165.711,6.338,6.338,0,0,1,2.873,3.292,6.114,6.114,0,0,1,.391,1.773,6.282,6.282,0,0,1-9.181,6.009v2.881a8.889,8.889,0,0,0,.861.251,8.715,8.715,0,0,0,1.853.235h5a1.17,1.17,0,0,1,1.02.6,3.461,3.461,0,0,0,3.019,1.767h.093V168.5C162.01,168.307,162,168.117,161.986,167.93Z" transform="translate(271.052 -59.664)" fill="url(#linear-gradient)"/>
  </g>
</svg>
