<svg xmlns="http://www.w3.org/2000/svg" xmlns:xlink="http://www.w3.org/1999/xlink" width="26" height="26" viewBox="0 0 26 26">
  <defs>
    <linearGradient id="linear-gradient" x1="-0.968" y1="1.137" x2="0.989" y2="0.389" gradientUnits="objectBoundingBox">
      <stop offset="0" stop-color="#f63cd1"/>
      <stop offset="0.492" stop-color="#f63cd1"/>
      <stop offset="1" stop-color="#7f22ff"/>
    </linearGradient>
  </defs>
  <g id="careers" transform="translate(-411.134 -97.134)">
    <rect id="Rectangle_13" data-name="Rectangle 13" width="26" height="26" transform="translate(411.134 97.134)" fill="#fff"/>
    <path id="Path_1248" data-name="Path 1248" d="M10.525,14.154a.863.863,0,0,1-.981-.972v-.669q-1.178-.089-2.351-.272T4.816,11.75q-1.2-.308-2.462-.763V9.479a21.835,21.835,0,0,0,3.1,1.03,23.45,23.45,0,0,0,3.145.562,29.925,29.925,0,0,0,3.252.174,29.758,29.758,0,0,0,3.234-.174,23.45,23.45,0,0,0,3.145-.562,21.835,21.835,0,0,0,3.1-1.03v1.508q-1.258.455-2.462.763t-2.377.491q-1.173.183-2.351.272v.669a.859.859,0,0,1-.972.972ZM5.03,19.7H18.643a2.749,2.749,0,0,0,2.007-.66,2.668,2.668,0,0,0,.669-1.98V8.837a2.668,2.668,0,0,0-.669-1.98,2.749,2.749,0,0,0-2.007-.66H5.03a2.752,2.752,0,0,0-2,.66,2.657,2.657,0,0,0-.674,1.98v8.225a2.657,2.657,0,0,0,.674,1.98A2.752,2.752,0,0,0,5.03,19.7ZM6.769,6.875H8.411V5.394A.64.64,0,0,1,8.6,4.908a.725.725,0,0,1,.522-.183h5.433a.725.725,0,0,1,.522.183.64.64,0,0,1,.192.486V6.875h1.641V5.313a2.022,2.022,0,0,0-.6-1.548A2.319,2.319,0,0,0,14.655,3.2H9.017a2.3,2.3,0,0,0-1.65.566,2.03,2.03,0,0,0-.6,1.548Z" transform="translate(412.297 98.683)" fill="url(#linear-gradient)"/>
  </g>
</svg>
