<svg xmlns="http://www.w3.org/2000/svg" xmlns:xlink="http://www.w3.org/1999/xlink" width="26" height="26" viewBox="0 0 26 26">
  <defs>
    <linearGradient id="linear-gradient" x1="-0.968" y1="1.137" x2="0.989" y2="0.389" gradientUnits="objectBoundingBox">
      <stop offset="0" stop-color="#f63cd1"/>
      <stop offset="0.492" stop-color="#f63cd1"/>
      <stop offset="1" stop-color="#7f22ff"/>
    </linearGradient>
  </defs>
  <g id="mission" transform="translate(-411.134 -97.134)">
    <rect id="Rectangle_13" data-name="Rectangle 13" width="26" height="26" transform="translate(411.134 97.134)" fill="#fff"/>
    <g id="Group_4144" data-name="Group 4144" transform="translate(414.186 101.018)">
      <path id="Path_8954" data-name="Path 8954" d="M9.16,0a8.985,8.985,0,0,1,6.051,2.237.183.183,0,0,1,.051.273,3.478,3.478,0,0,1-.971,1.127.135.135,0,0,1-.207-.007A7.1,7.1,0,0,0,9.914,1.8a7.213,7.213,0,0,0-6.1,2.265,7.155,7.155,0,0,0-1.983,4.2,7.35,7.35,0,0,0,4.078,7.512,7.127,7.127,0,0,0,6.972-.245,7.161,7.161,0,0,0,3.6-5.269,6.984,6.984,0,0,0-.047-2.491c-.021-.11.007-.15.106-.188a3.361,3.361,0,0,1,1.511-.222c.1.008.133.04.15.134a8.945,8.945,0,0,1-.314,4.521A9.042,9.042,0,0,1,12.746,17.6a8.84,8.84,0,0,1-5.255.567A9,9,0,0,1,2.1,14.988,8.817,8.817,0,0,1,.121,10.618a8.927,8.927,0,0,1,1.46-6.6A9.007,9.007,0,0,1,7.736.09,6.7,6.7,0,0,1,8.46.007c.233-.014.467,0,.7,0" transform="translate(0 0)" fill="url(#linear-gradient)"/>
      <path id="Path_8955" data-name="Path 8955" d="M136.979,141.648a5.563,5.563,0,0,1-1.07-11.049,5.474,5.474,0,0,1,4.082.921c.133.091.133.092-.006.17-.52.291-1.041.58-1.559.874a.227.227,0,0,1-.218.011,3.777,3.777,0,1,0,2.344,4.028.179.179,0,0,1,.107-.143c.521-.289,1.042-.577,1.559-.874.117-.067.133-.03.14.08a5.579,5.579,0,0,1-5.379,5.982" transform="translate(-127.639 -126.93)" fill="url(#linear-gradient)"/>
      <path id="Path_8956" data-name="Path 8956" d="M276.023,4.4c-.089.347-.168.661-.249.975-.152.59-.3,1.182-.46,1.77-.036.131.037.135.117.157l2.527.712c.025.007.056,0,.073.035-.008.042-.049.048-.078.064q-1.942,1.091-3.884,2.183a.383.383,0,0,1-.285.043,4.673,4.673,0,0,0-3.268.524q-2.088,1.168-4.175,2.338a.215.215,0,0,0-.128.213,1.956,1.956,0,0,1-3.91.01,1.955,1.955,0,0,1,2.972-1.728.219.219,0,0,0,.256,0q2.067-1.165,4.138-2.322A4.674,4.674,0,0,0,271.85,6.82a.258.258,0,0,1,.12-.156q1.957-1.092,3.912-2.19c.035-.02.072-.037.141-.071" transform="translate(-255.084 -4.282)" fill="url(#linear-gradient)"/>
    </g>
  </g>
</svg>
