<svg id="Oman" xmlns="http://www.w3.org/2000/svg" width="21" height="13.781" viewBox="0 0 21 13.781">
  <path id="Rounded_Rectangle_7_copy_2_" d="M1.9,0H19.064A1.905,1.905,0,0,1,21,1.87V11.911a1.877,1.877,0,0,1-1.9,1.87H1.9A1.9,1.9,0,0,1,0,11.911V1.87A1.9,1.9,0,0,1,1.9,0Z" fill="#fff"/>
  <path id="Path_8947" data-name="Path 8947" d="M0,21.317a1.9,1.9,0,0,0,1.9,1.87H19.1a1.877,1.877,0,0,0,1.9-1.87V14H0Z" transform="translate(0 -9.406)" fill="#009141"/>
  <rect id="Rectangle_1798" data-name="Rectangle 1798" width="21" height="4.344" transform="translate(0 4.594)" fill="#fc3d32"/>
  <path id="Path_8948" data-name="Path 8948" d="M1.9,0A1.9,1.9,0,0,0,0,1.87V11.911a1.9,1.9,0,0,0,1.9,1.87H6.562V0Z" fill="#fc3d32"/>
  <path id="Path_8949" data-name="Path 8949" d="M7.674,5.144H7.642c-.23-.2-.525-.459-.919-.82l-.23-.23c0-.066.033-.131.033-.2V3.8a1,1,0,0,0,.164-.23h.033V3.6c0,.066.1.131.2.131a.2.2,0,0,0,.2-.1h.1V3.7a.071.071,0,0,0,.066.066h.755A.071.071,0,0,0,8.1,3.7V3.372a.071.071,0,0,0-.066-.066H7.281a.071.071,0,0,0-.066.066v.066h-.1c0-.066-.1-.1-.2-.1H6.887A5.578,5.578,0,0,0,7.642,1.7,5.284,5.284,0,0,0,6.559,3.175h.033a.453.453,0,0,0-.1.131h0V2.88h0V2.814a.15.15,0,0,1-.164-.131H6.3V2.552H6.264v-.1h0V2.322H6.231V2.158h0v-.1a.032.032,0,0,0,.033-.033.115.115,0,0,0,.066-.033h0l.066-.066h.033a.066.066,0,0,0,0-.131h0a.071.071,0,0,0-.066-.066h0c-.033,0-.033-.033-.066-.033s-.033-.033-.066-.033h0a.066.066,0,1,0-.131,0h0c-.033,0-.033,0-.066.033a.115.115,0,0,1-.066.033h0c-.033.033-.033.066-.066.1h0a.066.066,0,1,0,0,.131h.033c0,.033.033.033.066.066H6a.1.1,0,0,1,.066.033H6.1v.1h0v.164H6.067v.131h0v.131H6.034v.131H6a.15.15,0,0,1-.164.131v.492a.453.453,0,0,0-.1-.131h.033c-.492-.853-.984-1.542-1.083-1.477a6.178,6.178,0,0,0,.755,1.575h0a.3.3,0,0,0-.23.1h-.1V3.372a.071.071,0,0,0-.066-.066H4.295c-.066,0-.1,0-.1.066v.361a.071.071,0,0,0,.066.066h.755a.071.071,0,0,0,.066-.066v-.1h.131a.382.382,0,0,0,.23.066.2.2,0,0,0,.2-.1.1.1,0,0,0,.066.033h0a.576.576,0,0,0,.131.164c0,.066-.033.1-.033.131H5.673c-.164,0-.525,0-.853.033H4.689c-.2.033-.361.1-.361.164s.164.164.361.23h0l.131.033h0a4.22,4.22,0,0,0,.623.131c-.3.3-.525.492-.722.656H4.689c-.3.328-.623.492-.525.525.131.066.525-.1.919-.427h0q.345-.3.787-.689a.835.835,0,0,0,.525-.164.115.115,0,0,1,.033.066c.328.328.623.591.886.82h0a1.145,1.145,0,0,0,.919.427C8.3,5.6,7.97,5.472,7.674,5.144ZM6.887,3.208Z" transform="translate(-2.785 -1.075)" fill="#fff" stroke="#fc3d32" stroke-width="0.25"/>
</svg>
