<svg xmlns="http://www.w3.org/2000/svg" xmlns:xlink="http://www.w3.org/1999/xlink" width="26" height="26" viewBox="0 0 26 26">
  <defs>
    <linearGradient id="linear-gradient" x1="-0.968" y1="1.137" x2="0.989" y2="0.389" gradientUnits="objectBoundingBox">
      <stop offset="0" stop-color="#f63cd1"/>
      <stop offset="0.492" stop-color="#f63cd1"/>
      <stop offset="1" stop-color="#7f22ff"/>
    </linearGradient>
  </defs>
  <g id="partners" transform="translate(-411.134 -97.134)">
    <rect id="Rectangle_13" data-name="Rectangle 13" width="26" height="26" transform="translate(411.134 97.134)" fill="#fff"/>
    <g id="Group_268" data-name="Group 268" transform="translate(411.796 86.174)">
      <g id="Group_267" data-name="Group 267" transform="translate(2.488 16.8)">
        <path id="Path_1249" data-name="Path 1249" d="M13.168,43.541H9.228L8.4,45.718l-.332-1.41h.041a.223.223,0,0,0,.207-.207v-.394a.223.223,0,0,0-.207-.207h-.5a.223.223,0,0,0-.207.207V44.1a.223.223,0,0,0,.207.207h.021L7.3,45.718l-.829-2.177H6.388c-1.887,0-2.633,2.032-3.027,3.11-.062.145-.1.29-.145.394a24.355,24.355,0,0,0-.7,2.571,1.079,1.079,0,0,0,.643,1.223.02.02,0,0,1,.021.021,1.081,1.081,0,0,0,1.451-.746,19.9,19.9,0,0,1,.58-2.218c.062-.124.1-.29.166-.456l.062,3.172a1.07,1.07,0,0,0,.933,1.037,11.142,11.142,0,0,0,1.451.083,11.142,11.142,0,0,0,1.451-.083,1.036,1.036,0,0,0,.933-1.037l.187-4.914h1.348A6.514,6.514,0,0,1,13.168,43.541Z" transform="translate(-2.488 -37.965)" fill="url(#linear-gradient)"/>
        <circle id="Ellipse_41" data-name="Ellipse 41" cx="2.509" cy="2.509" r="2.509" transform="translate(2.843 0)" fill="url(#linear-gradient)"/>
        <path id="Path_1250" data-name="Path 1250" d="M56.488,49.7a21.381,21.381,0,0,0-.7-2.55,4.081,4.081,0,0,1-.145-.394c-.394-1.078-1.14-3.11-3.027-3.11h-.083L51.7,45.818l-.332-1.41h.041a.223.223,0,0,0,.207-.207v-.394a.223.223,0,0,0-.207-.207h-.5a.223.223,0,0,0-.207.207V44.2a.223.223,0,0,0,.207.207h.021l-.332,1.41-.829-2.177h-.083c-1.887,0-2.633,2.032-3.027,3.11-.062.145-.1.29-.145.394a18.432,18.432,0,0,0-.7,2.571,1.079,1.079,0,0,0,.643,1.223h.021a1.074,1.074,0,0,0,1.451-.746c.207-.891.435-1.824.581-2.218.062-.124.1-.29.166-.456l.062,3.172a1.07,1.07,0,0,0,.933,1.037,12.921,12.921,0,0,0,2.923,0,1.053,1.053,0,0,0,.933-1.037l.062-3.172c.062.166.124.332.166.456a19.05,19.05,0,0,1,.6,2.218,1.068,1.068,0,0,0,1.451.746h.021A1.131,1.131,0,0,0,56.488,49.7Z" transform="translate(-36.811 -38.044)" fill="url(#linear-gradient)"/>
        <circle id="Ellipse_42" data-name="Ellipse 42" cx="2.509" cy="2.509" r="2.509" transform="translate(11.84 0)" fill="url(#linear-gradient)"/>
      </g>
    </g>
  </g>
</svg>
