<svg xmlns="http://www.w3.org/2000/svg" xmlns:xlink="http://www.w3.org/1999/xlink" width="26" height="26" viewBox="0 0 26 26">
  <defs>
    <linearGradient id="linear-gradient" x1="-0.968" y1="1.137" x2="0.989" y2="0.389" gradientUnits="objectBoundingBox">
      <stop offset="0" stop-color="#f63cd1"/>
      <stop offset="0.492" stop-color="#f63cd1"/>
      <stop offset="1" stop-color="#7f22ff"/>
    </linearGradient>
  </defs>
  <g id="pos_solution" transform="translate(-411.134 -97.134)">
    <rect id="Rectangle_13" data-name="Rectangle 13" width="26" height="26" transform="translate(411.134 97.134)" fill="#fff"/>
    <g id="Group_263" data-name="Group 263" transform="translate(412.442 98.445)">
      <path id="Path_1238" data-name="Path 1238" d="M21.383,17.228v2.077a2.077,2.077,0,0,1-2.077,2.077H4.077A2.077,2.077,0,0,1,2,19.305V17.228ZM20,16.536h1.385a1.7,1.7,0,0,0-.692-1.031V8.921a2.077,2.077,0,0,0-2.077-2.077V8.229h0a.693.693,0,0,1,.692.692v6.23H4.077V8.921a.693.693,0,0,1,.692-.692h6.923V6.844H8.23V6.152h2.077A.693.693,0,0,0,11,5.46V2.691A.693.693,0,0,0,10.307,2H4.769a.693.693,0,0,0-.692.692V5.46a.693.693,0,0,0,.692.692H6.846v.692H4.769A2.077,2.077,0,0,0,2.692,8.921V15.5A1.7,1.7,0,0,0,2,16.536Zm-7.615-6.23h5.538a.692.692,0,0,0,0-1.385H12.384a.692.692,0,0,0,0,1.385Zm5.538-7.615a.692.692,0,0,0-1.045-.6l-1.724,1L13.422,2.089a.692.692,0,0,0-1.038.6V8.229h5.538ZM5.461,9.614a.693.693,0,0,0-.692.692v2.769a.693.693,0,0,0,.692.692H9.615a.693.693,0,0,0,.692-.692V10.306a.693.693,0,0,0-.692-.692ZM13.076,11a.692.692,0,1,0,.692.692A.693.693,0,0,0,13.076,11Zm2.077,0a.692.692,0,1,0,.692.692A.693.693,0,0,0,15.153,11Zm2.077,0a.692.692,0,1,0,.692.692A.693.693,0,0,0,17.23,11Zm-4.154,2.077a.692.692,0,1,0,.692.692A.693.693,0,0,0,13.076,13.075Zm2.077,0a.692.692,0,1,0,.692.692A.693.693,0,0,0,15.153,13.075Zm2.077,0a.692.692,0,1,0,.692.692A.693.693,0,0,0,17.23,13.075Z" transform="translate(0 0)" fill="url(#linear-gradient)"/>
    </g>
  </g>
</svg>
