<svg id="Saudi_Arabia" data-name="Saudi Arabia" xmlns="http://www.w3.org/2000/svg" width="21" height="13.781" viewBox="0 0 21 13.781">
  <path id="Rounded_Rectangle_7_copy_1_" d="M1.9,0H19.064A1.905,1.905,0,0,1,21,1.87V11.911a1.877,1.877,0,0,1-1.9,1.87H1.9A1.9,1.9,0,0,1,0,11.911V1.87A1.9,1.9,0,0,1,1.9,0Z" fill="#009530"/>
  <path id="Path_8953" data-name="Path 8953" d="M18.955,9a.1.1,0,0,0-.066.033.377.377,0,0,0-.164.3c0,.066-.033.066.033.131.033.066.066.033.131,0,.033-.033.066-.033.066-.1.033-.1-.1.033-.1-.066-.033-.1.033-.131.1-.2q.049-.1,0-.1Zm1.05,0c-.033,0-.033.033-.066.1a.378.378,0,0,0-.066.361.971.971,0,0,1,.066.558c-.033.066-.066.1-.1.164-.066.1-.164.066-.23.033s-.1-.066-.131-.2c0-.2.033-.558-.033-.623-.066-.1-.131-.066-.2-.033a1.134,1.134,0,0,0-.328.689c-.066.164-.1.131-.131.066-.1-.1-.1-.788-.23-.656-.2.525.1,1.116.3,1.05.131.066.23-.23.3-.525.033-.1.066-.1.1-.066,0,.394.033.492.131.623.23.164.427.033.427,0l.164-.164a.146.146,0,0,1,.164,0c.066.066.033.131.164.2a.456.456,0,0,0,.361-.066c.066-.1.066-.164.1-.2.033-.066.131-.033.131,0s-.066.066-.033.131c.066.033.066,0,.1,0,.131-.066.2-.3.2-.3,0-.1-.033-.1-.1-.066a.252.252,0,0,1-.1.066c-.066,0-.164.033-.23-.033a1.163,1.163,0,0,1-.1-.361s-.066-.164,0-.164c.033,0,.1.033.131-.033s-.066-.23-.164-.328a.17.17,0,0,0-.263,0,.241.241,0,0,0-.066.2.441.441,0,0,0,.066.263.833.833,0,0,1,.131.525.246.246,0,0,1-.2.1c-.066,0-.131-.033-.164-.361a2.4,2.4,0,0,0-.1-.722c.033-.2.033-.23,0-.23Zm-.328.033q-.049,0-.1.1c-.033.066-.066.328-.033.328-.033.066.1.131.131,0a.918.918,0,0,0,.066-.361c-.033-.066-.033-.066-.066-.066Zm1.181,0a.071.071,0,0,0-.066.066v.263c0,.066.1.164.131.23.2.3.394.558.591.853a4.484,4.484,0,0,1,.066.623,11.584,11.584,0,0,1,0,1.509c.1,0,.23-.131.263-.361.033-.3,0-.886,0-1.05v-.23c.23.361.427.755.656,1.181a.725.725,0,0,0,0-.525,8.755,8.755,0,0,0-.492-.886c-.033-.066-.131-.2-.23-.361a3.566,3.566,0,0,0-.066-.492c-.033-.23.1.033.066-.131a1.282,1.282,0,0,0-.328-.623c-.066-.066-.066-.1-.131.033a.908.908,0,0,0-.033.3c-.033-.033-.033-.066-.1-.1a1.644,1.644,0,0,0-.262-.23c.066-.033,0-.066-.066-.066Zm3.577.033a.1.1,0,0,0-.066.033.251.251,0,0,0-.066.164c0,.131.033.263.033.394v.066a.032.032,0,0,0-.033-.033c-.262-.263.131-.033-.033-.263a1.253,1.253,0,0,0-.3-.3c-.066-.033-.1-.1-.131,0v.328a.374.374,0,0,0,.1.2c.164.2.328.427.525.656.033.459.033.886.1,1.378,0,.2-.066.459-.131.492,0,0-.1.066-.164,0-.033-.033-.23-.3-.23-.3q-.148-.1-.2,0a2.763,2.763,0,0,0-.361.689c-.033.033-.131.1-.2,0a1.135,1.135,0,0,1-.131-.689.659.659,0,0,0-.066.722.579.579,0,0,0,.263.3.2.2,0,0,0,.3-.033c.131-.131.131-.459.2-.525.033-.131.131-.1.2-.033s.1.131.2.164a.3.3,0,0,0,.394.033.408.408,0,0,0,.2-.262,9.714,9.714,0,0,0,.033-1.477c.1.131.164.263.262.394a7.507,7.507,0,0,1,.033,1.214c0,.066.263-.23.263-.361v-.361c.131.23.262.427.394.656a.723.723,0,0,0,0-.525,5.125,5.125,0,0,0-.427-.623c-.033-.23-.066-.492-.066-.591a2.3,2.3,0,0,0-.1-.459c0-.066-.033-.263-.033-.263,0-.033.066,0,.1-.033a1.744,1.744,0,0,0-.23-.656c-.033-.066-.1-.033-.164.066-.066.066-.033.23-.033.361.066.361.131.755.2,1.116-.1-.131-.2-.3-.328-.459v-.066A1.61,1.61,0,0,0,24.7,9.82c0-.033,0-.033.033-.033.033.033.033.033.066.033s.066-.033.033-.1c-.1-.2-.2-.361-.3-.558l-.1-.1ZM15.248,9.1c-.066,0-.131.033-.1.1a1.882,1.882,0,0,0,.131.23c.033.033-.033.2.033.23.033,0,.1-.1.1-.23,0-.1,0-.3-.164-.328Zm10.467,0-.066.066a.769.769,0,0,0-.066.394c.131.919.23,1.8.263,2.592a.354.354,0,0,1-.066.23,1.132,1.132,0,0,1-.262.3,3.035,3.035,0,0,1-.328.164c-.131.1-.131.23,0,.23a.928.928,0,0,0,.755-.361,1.068,1.068,0,0,0,.131-.459,9.956,9.956,0,0,0-.131-2.3c0-.066-.033-.2-.033-.23.033-.033.1,0,.131-.033s-.23-.361-.3-.525a.115.115,0,0,0-.033-.066Zm-2.658,0-.066.066a1.21,1.21,0,0,0-.066.558,11.231,11.231,0,0,1,.328,2.723c.1,0,.2-.2.23-.394a1.633,1.633,0,0,0-.033-.591,12.133,12.133,0,0,0-.23-1.575c-.033-.23.164-.033.131-.164a4.583,4.583,0,0,1-.3-.558V9.1Zm-6.5.033c-.033,0-.033.033-.066.066v.066s-.066,0-.033-.066c0-.033,0-.033-.033-.033H16.4c-.033,0-.033,0-.033.033V9.23c0,.033,0,.033-.033.033H16.3a.032.032,0,0,1-.033-.033V9.2a.032.032,0,0,1-.033-.033c-.033-.033-.033.033-.033.066a.255.255,0,0,0,.1.2c.131.066.361.033.361-.164v-.1c-.066-.033-.066-.033-.1-.033Zm1.673,0a.121.121,0,0,0-.1.033.208.208,0,0,0-.033.3c.066.033.131.1.1.131-.164.2-.656.492-.656.558h.361a4.464,4.464,0,0,0,.558-.591L18.4,9.492c-.033-.033-.033-.033,0-.066.131-.066.066-.23.033-.3Zm4.331,0L22.5,9.2a.779.779,0,0,0-.1.394c.131.853.164,1.575.23,2.428,0,.066,0,.2-.066.23a2.914,2.914,0,0,1-.788.591c-.033.033.1.2.23.2a.859.859,0,0,0,.689-.558.834.834,0,0,0,.164-.427A8.4,8.4,0,0,0,22.7,9.919V9.755c.033-.033.066,0,.1-.033a1.733,1.733,0,0,0-.23-.591c.033.033.033,0,0,0Zm-6.727.033c-.033,0-.066.033-.1.066v.394a4.1,4.1,0,0,1,.1.623c0,.3-.164.131-.164-.033a1.544,1.544,0,0,0,0-.558c-.033-.066-.066-.1-.131-.1s-.2.164-.23.427a1.242,1.242,0,0,0-.033.262c-.033.131-.1.23-.164-.033-.066-.2-.1-.623-.164-.525-.033.361-.066.984.23,1.05.361.033.164-.623.3-.722.033-.066.066-.066.066,0v.558a.255.255,0,0,0,.2.263c.1,0,.164,0,.2.1,0,.328.033.623.033.952,0,0,.23.066.23-.525,0-.361-.066-.656-.033-.722,0-.066.1-.066.131-.033.1.066.131.164.3.131.23-.066.361-.164.361-.328a1.317,1.317,0,0,0-.1-.492c0-.033-.033-.1-.033-.131a.068.068,0,0,0,.131,0,.478.478,0,0,0-.2-.3c-.066-.066-.2-.066-.23.1a.707.707,0,0,0,.2.525.349.349,0,0,1,.033.263.155.155,0,0,1-.2-.033s-.164-.131-.164-.164a1.635,1.635,0,0,0,0-.427.389.389,0,0,0-.131-.23.1.1,0,0,0-.131,0,1.072,1.072,0,0,0,0,.558c.033.131.1.2.066.2-.033.066-.066.066-.1-.033a1.535,1.535,0,0,1-.066-.525c0-.131-.033-.427-.131-.492-.033-.066-.033-.1-.066-.066Zm1.28,0c-.033,0-.033,0-.066.033a.2.2,0,0,0-.131.23c.1.558.164.984.23,1.542,0,.066-.033.164-.1.131-.131-.066-.164-.23-.361-.23a.383.383,0,0,0-.328.328.671.671,0,0,0,0,.361c.1.131.23.1.328.1.1-.033.164-.131.2-.1h0c.033.033,0,.328-.427.558-.263.131-.459.131-.558-.066-.066-.131,0-.623-.164-.525-.492,1.28,1.148,1.444,1.345.066a.071.071,0,0,1,.066-.066l.033.033c-.033,1.28-1.28,1.345-1.509.952a.9.9,0,0,1-.066-.427c0-.066-.033-.131-.066-.131-.066-.033-.131.066-.131.23a.892.892,0,0,0,0,.3c.066,1.017,1.673.558,1.936-.263a2.186,2.186,0,0,0,.033-.787h0a.293.293,0,0,0,.427-.033.062.062,0,0,1,.1,0,.275.275,0,0,0,.394-.1c.033-.164.033-.328.066-.492-.066.033-.131.033-.164.066V10.9a.2.2,0,0,1-.033.131h0c-.033,0-.066,0-.066-.033-.033-.164-.2-.2-.3.066-.066.066-.2.066-.2,0,0-.2-.066-.2-.2-.131-.033-.361-.1-.689-.131-1.05.066,0,.131.033.164-.033a2.95,2.95,0,0,0-.262-.623h0c-.033-.066-.066-.066-.066-.066Zm4.955,0c-.066,0-.131.033-.1.131a3.027,3.027,0,0,0,.164.263c.033.131-.033.23,0,.263s.1-.131.131-.263c0-.131-.066-.361-.2-.394ZM18.2,9.3a.071.071,0,0,1,.066.066c.033.033,0,.066-.033.1-.033,0-.066-.033-.1-.066.033-.066.033-.1.066-.1Zm7.153.2c-.066,0-.131.033-.1.131,0,.033.131.2.131.3.033.066-.033.263,0,.3s.1-.131.1-.3c.066-.1,0-.394-.131-.427Zm-3.937.066v.066c0,.066.033.1.033.164-.033-.066-.1-.1-.1-.131-.1-.1,0-.066.066-.1Zm.886.459c-.033,0-.033.033-.066.066v.066s-.066,0-.033-.066c0-.033,0-.033-.033-.033h-.033c-.033,0-.033,0-.033.033v.033c0,.033,0,.033-.033.033H22.04a.032.032,0,0,1-.033-.033v-.033h-.033c-.066,0-.066.066-.066.1a.255.255,0,0,0,.1.2c.131.066.361.033.361-.164v-.1c0-.1-.033-.1-.066-.1Zm-4.167.033a.1.1,0,0,0-.066.033.266.266,0,0,0-.1.328.146.146,0,0,0,.164.066c.1,0,.164-.2.164-.2s0-.066-.131.066c-.066,0-.066,0-.066-.033a.3.3,0,0,1,.033-.164c.066-.066.033-.066,0-.1Zm5.906.033a.12.12,0,0,0-.131.131c0,.033.033.066.033.131q0,.049-.1,0l-.033-.066c-.033-.033-.1,0-.164.033a.206.206,0,0,0,0,.2c.066.131.3.361.427.361a1.23,1.23,0,0,1,.033-.361.121.121,0,0,1,.033-.1c.033,0,.1.033.1,0a.474.474,0,0,0-.066-.23c-.066-.066-.1-.1-.131-.1Zm-4.889.427h0c-.033,0-.033.033-.066.066-.066.066-.066.1-.066.23a4.636,4.636,0,0,0,.2.492,1.45,1.45,0,0,1,.066.656,1.488,1.488,0,0,1-.656.689c-.131.033-.23.033-.263,0h0a.212.212,0,0,1-.066-.164h0a1.488,1.488,0,0,0,.656-.689.8.8,0,0,0,.033-.492,1.6,1.6,0,0,0-.1-.23h0c.033-.033.131.066.164,0a.782.782,0,0,0-.2-.361.159.159,0,0,0-.23,0c-.066.033-.1.2-.066.328.033.1.164.131.23.328h0a.518.518,0,0,1,0,.23,2.1,2.1,0,0,1-.492.459h0v-.066c0-.066.033-.2.033-.23h0a1.011,1.011,0,0,0-.23.459,6.819,6.819,0,0,0-1.017.689c-.131.2.853-.23.952-.263h0c.033.033.033.1.1.164a.5.5,0,0,0,.525.164,1.59,1.59,0,0,0,.755-.623c.033-.033.066-.066.131-.033a1.183,1.183,0,0,0,1.083.558c.131-.164.066-.23,0-.263,0,0-.262-.1-.3-.2s.033-.164.164-.23a5.232,5.232,0,0,0,.984-.2.963.963,0,0,1,.1-.328c.033-.033.033-.066.066-.066h0l-.066-.033H20.465a.032.032,0,0,0,.033-.033c.263-.033.722-.1.755-.558a.385.385,0,0,0-.394-.427.376.376,0,0,0-.328.427c0,.066.033.164-.033.2-.394.033-.82.3-.853.459h0c-.033,0-.066-.066-.066-.1a2.276,2.276,0,0,0-.262-.919c-.1-.1-.131-.1-.164-.1Zm1.05.164c-.033,0-.033.033-.066.066V10.8s-.066,0-.033-.066c0-.033,0-.033-.033-.033h-.033c-.033,0-.033,0-.033.033v.033c0,.033,0,.033-.033.033H19.94a.032.032,0,0,1-.033-.033v-.033h-.033c-.066,0-.066.066-.066.1a.255.255,0,0,0,.1.2c.131.066.427.033.361-.164v-.1c-.033-.1-.066-.131-.066-.1Zm4.167.164h0a6.654,6.654,0,0,0-.591.427c-.066.066-.033.23,0,.2a2.63,2.63,0,0,0,.623-.427s0-.2-.033-.2Zm-3.642.066a.121.121,0,0,1,.1.033c.033.033.066.066.066.1h0a.062.062,0,0,1-.1,0c-.033-.033-.066-.066-.066-.1h0c-.033-.033-.033-.033,0-.033Zm-5.02.1a1.022,1.022,0,0,0-.755.591c.328-.164.623-.3.952-.459-.066-.066,0-.131-.2-.131Zm.952.131c.033,0,.066,0,.066.066a.121.121,0,0,1-.033.1h-.1c-.033,0-.066,0-.066-.033s.033-.066.033-.1h0c.066-.033.066-.033.1-.033Zm7.58.1c-.066,0-.1.066-.066.131a3.02,3.02,0,0,0,.1.3c.033.066-.033.23,0,.262s.131-.1.131-.262c0-.066-.033-.394-.164-.427Zm-6.431.3c-.033,0-.1.033-.066.1,0,.033.131.1.131.23.033.033-.033.2,0,.2s.1-.1.1-.2c0-.066-.033-.262-.131-.3,0-.033,0-.033-.033-.033Zm1.936.263h0c.131.033.3.033.459.066.131,0,.2.1.066.131s-.23.066-.23.23v.131h0c-.033,0-.066-.033-.1-.033a.646.646,0,0,1-.3-.427c-.033-.033.033-.066.1-.1Zm-4.725.23-.033.033a.962.962,0,0,0-.1.82c.066.066.131.1.2.066.1-.033.164-.263.131-.361-.033-.066-.066-.066-.1-.033-.066.164-.1.066-.131-.033a2.018,2.018,0,0,1,.033-.459c.033-.033.033-.033,0-.033Zm6.037.361h0a.686.686,0,0,0-.2.131c-.033.033-.033.033,0,.066a.062.062,0,0,0,.1,0c.066,0,.066.033.066.1-.033.066,0,.1,0,.1s.033.033.1,0c.131-.033.2-.1.361-.131.033,0,.033-.131-.033-.131a.4.4,0,0,0-.262.066c-.066.066-.066.033-.066,0,0-.066.033-.131.033-.2,0,.033-.033,0-.1,0Zm3.872.131h-.066a.071.071,0,0,0-.066.066c0,.066.033.066.1.1a.062.062,0,0,1,0,.1l-.1.1c-.033.033-.033.1.033.1.1.033.361-.131.361-.131a.162.162,0,0,0,.033-.1c-.033-.033-.066,0-.1,0s-.066,0-.033-.066c-.033,0-.033-.033-.033-.066.033-.033,0-.066-.066-.066,0-.033-.033-.033-.066-.033Zm-1.608,3.281h0c-.164.033-.164.23-.066.328-1.9,0-4.791-.033-5.414-.033-.361,0-1.444-.033-1.477-.033a1.068,1.068,0,0,0,1.017.427h5.841a.386.386,0,0,0,.066.394h0c.066.033.1-.033.131-.066a7.375,7.375,0,0,0,.853,0h0c.033.066.1.131.164.1.131-.033.263-.033.263-.328,0,0,0-.492-.328-.459-.066,0-.3.033-.3.033a4.621,4.621,0,0,0-.689-.033c.033-.033.066-.164,0-.2a.045.045,0,0,0-.066,0h0a.158.158,0,0,0,0-.131Zm.131.689h.82c.033.033.033.131,0,.131h-.23a.123.123,0,0,0-.2,0h-.361c-.066-.033-.066-.131-.033-.131Z" transform="translate(-9.965 -6.047)" fill="#fff"/>
</svg>
