<svg xmlns="http://www.w3.org/2000/svg" xmlns:xlink="http://www.w3.org/1999/xlink" width="26" height="26" viewBox="0 0 26 26">
  <defs>
    <linearGradient id="linear-gradient" x1="-0.968" y1="1.137" x2="0.989" y2="0.389" gradientUnits="objectBoundingBox">
      <stop offset="0" stop-color="#f63cd1"/>
      <stop offset="0.492" stop-color="#f63cd1"/>
      <stop offset="1" stop-color="#7f22ff"/>
    </linearGradient>
  </defs>
  <g id="vision" transform="translate(-411.134 -97.134)">
    <rect id="Rectangle_13" data-name="Rectangle 13" width="26" height="26" transform="translate(411.134 97.134)" fill="#fff"/>
    <path id="Path_8957" data-name="Path 8957" d="M12.46,17.6a11.17,11.17,0,0,0,2.927-.372,12.528,12.528,0,0,0,2.543-.982A12.872,12.872,0,0,0,20.016,14.9a11.992,11.992,0,0,0,1.566-1.48,7.863,7.863,0,0,0,.987-1.373,2.311,2.311,0,0,0,.341-1.02,2.309,2.309,0,0,0-.341-1.02,7.869,7.869,0,0,0-.987-1.372,11.886,11.886,0,0,0-1.57-1.48,13.013,13.013,0,0,0-2.09-1.346,12.54,12.54,0,0,0-2.539-.982,11.137,11.137,0,0,0-2.923-.372,11.016,11.016,0,0,0-2.9.372,12.556,12.556,0,0,0-2.535.982A13.186,13.186,0,0,0,4.931,7.158a12.208,12.208,0,0,0-1.582,1.48,8.05,8.05,0,0,0-1,1.372A2.272,2.272,0,0,0,2,11.03a2.274,2.274,0,0,0,.349,1.02,8.044,8.044,0,0,0,1,1.373A12.2,12.2,0,0,0,4.931,14.9a13.192,13.192,0,0,0,2.093,1.346,12.567,12.567,0,0,0,2.535.982A11.007,11.007,0,0,0,12.46,17.6Zm0-2.324a4.1,4.1,0,0,1-2.156-.581,4.408,4.408,0,0,1-1.538-1.544,4.24,4.24,0,0,1-.007-4.271A4.3,4.3,0,0,1,10.3,7.351a4.358,4.358,0,0,1,4.3,0,4.326,4.326,0,0,1,1.545,1.532,4.255,4.255,0,0,1,.246,3.783,4.316,4.316,0,0,1-.919,1.354,4.367,4.367,0,0,1-1.359.923A4.111,4.111,0,0,1,12.462,15.278Zm0-2.684a1.564,1.564,0,1,0-1.112-2.669,1.541,1.541,0,0,0,0,2.207A1.523,1.523,0,0,0,12.46,12.595Z" transform="translate(411.68 99.103)" fill="url(#linear-gradient)"/>
  </g>
</svg>
