<svg xmlns="http://www.w3.org/2000/svg" xmlns:xlink="http://www.w3.org/1999/xlink" width="26" height="26" viewBox="0 0 26 26">
  <defs>
    <linearGradient id="linear-gradient" x1="-0.968" y1="1.137" x2="0.989" y2="0.389" gradientUnits="objectBoundingBox">
      <stop offset="0" stop-color="#f63cd1"/>
      <stop offset="0.492" stop-color="#f63cd1"/>
      <stop offset="1" stop-color="#7f22ff"/>
    </linearGradient>
  </defs>
  <g id="vpos_icon" transform="translate(-411.134 -97.134)">
    <rect id="Rectangle_13" data-name="Rectangle 13" width="26" height="26" transform="translate(411.134 97.134)" fill="#fff"/>
    <path id="Path_8080" data-name="Path 8080" d="M417.745,100.495h10.694v18.779l-.964.964H418.22l-.964-.964v-17.6Z" opacity="0.431" fill="url(#linear-gradient)"/>
    <path id="Path_1239" data-name="Path 1239" d="M22.087,12.787,24.9,9.97l-.52-.52-3.337,3.337Zm1.621-4.013-.14-.14a2.156,2.156,0,0,0-3.045,0l-4.153,4.154H19.7Zm4.013,4.013-2.141-2.141L23.44,12.787Z" transform="translate(443.516 91.433) rotate(90)" fill="url(#linear-gradient)"/>
    <path id="Path_8079" data-name="Path 8079" d="M6.357,24.407h7.824a2.842,2.842,0,0,0,2.056-.754,2.636,2.636,0,0,0,.784-1.992V5.116a2.64,2.64,0,0,0-.784-1.987,2.832,2.832,0,0,0-2.056-.759H6.357a2.885,2.885,0,0,0-2.083.759,2.626,2.626,0,0,0-.792,1.986V21.662a2.622,2.622,0,0,0,.792,1.991A2.9,2.9,0,0,0,6.357,24.407Zm.275-1.866a1.336,1.336,0,0,1-.966-.327,1.229,1.229,0,0,1-.339-.927V5.489a1.229,1.229,0,0,1,.339-.927,1.336,1.336,0,0,1,.966-.327H7.966a.221.221,0,0,1,.25.25v.243a.731.731,0,0,0,.194.531.686.686,0,0,0,.516.2h2.664a.7.7,0,0,0,.52-.2.719.719,0,0,0,.2-.531V4.485q0-.25.24-.25h1.325a1.348,1.348,0,0,1,.97.328,1.222,1.222,0,0,1,.343.927v15.8a1.222,1.222,0,0,1-.343.927,1.348,1.348,0,0,1-.97.328ZM8.07,21.76h4.382a.492.492,0,0,0,.356-.135.534.534,0,0,0,0-.723.491.491,0,0,0-.356-.136H8.07a.49.49,0,0,0-.355.136.534.534,0,0,0,0,.723A.491.491,0,0,0,8.07,21.76Z" transform="translate(412.708 96.718)" fill="url(#linear-gradient)"/>
  </g>
</svg>
