<svg xmlns="http://www.w3.org/2000/svg" width="75" height="73.12" viewBox="0 0 75 73.12">
  <g id="dashboard_icon" transform="translate(-522 -255.789)">
    <path id="Path_1251" data-name="Path 1251" d="M123.165,220.356A38.621,38.621,0,0,1,112.344,247.2a3.4,3.4,0,0,1-5.219.011q-2.916-2.954-5.814-5.928a3.553,3.553,0,0,1-.1-5.1,3.4,3.4,0,0,1,4.954.107c.856.852,1.726,1.692,2.53,2.592.445.5.651.36.984-.1a31.262,31.262,0,0,0,.383-36.285c-.157-.228-.345-.437-.486-.675-.242-.406-.447-.436-.785-.068-.75.814-1.539,1.591-2.319,2.378a3.448,3.448,0,0,1-5.066.149,3.6,3.6,0,0,1,.162-5.108c.754-.776,1.5-1.563,2.278-2.311.365-.351.448-.552-.021-.911A29.536,29.536,0,0,0,90.8,190.194c-1.692-.3-1.7-.269-1.694,1.465,0,.889.013,1.779-.009,2.667a3.437,3.437,0,1,1-6.874.006c-.026-1.168-.056-2.34.008-3.5.042-.768-.25-.889-.9-.786A29.882,29.882,0,0,0,69.4,194.606c-.627.413-1.213.891-1.842,1.3-.473.307-.535.538-.085.957.809.753,1.568,1.562,2.334,2.362a3.6,3.6,0,0,1,.1,5.058,3.438,3.438,0,0,1-5.012-.1c-.78-.785-1.573-1.559-2.317-2.379-.384-.423-.576-.35-.891.076a31.168,31.168,0,0,0-5.782,14.187c-.089.607.089.8.693.783,1.145-.041,2.292-.028,3.438-.005a3.517,3.517,0,1,1-.084,7.03c-1.1,0-2.195.044-3.288-.015-.682-.037-.859.168-.756.849a31.534,31.534,0,0,0,3.975,11.4c.577.981,1.218,1.916,1.88,2.839.261.364.431.372.735.048.827-.88,1.679-1.737,2.532-2.591a3.4,3.4,0,0,1,5.058-.148,3.565,3.565,0,0,1-.153,5.1q-2.837,2.927-5.7,5.826a3.429,3.429,0,0,1-5.381-.083,38.143,38.143,0,0,1-10.589-24c-1.4-18.745,11.147-35.994,29.112-40.022,20.063-4.5,39.668,7.853,44.674,28.148a35.943,35.943,0,0,1,.783,4.262A43.382,43.382,0,0,1,123.165,220.356Z" transform="translate(473.835 73.633)" fill="#7f22ff"/>
    <path id="Path_1252" data-name="Path 1252" d="M198.63,589.8c-4.831,0-9.662-.013-14.493.008a2.727,2.727,0,0,1-2.832-1.677,2.774,2.774,0,0,1,.819-3.229q3.054-3.08,6.076-6.192a5.843,5.843,0,0,1,4.417-1.859q6.088.043,12.177,0a5.839,5.839,0,0,1,4.417,1.858q3.052,3.136,6.128,6.247a2.741,2.741,0,0,1,.765,3.176,2.678,2.678,0,0,1-2.758,1.672C208.441,589.79,203.535,589.8,198.63,589.8Z" transform="translate(360.792 -260.898)" fill="#f63cd1"/>
    <path id="Path_1253" data-name="Path 1253" d="M252.439,394.243a8.4,8.4,0,0,1-8.21-7.892,8.234,8.234,0,0,1,6.618-8.686,7.716,7.716,0,0,1,7.674,2.69,1.706,1.706,0,0,0,1.184.645c4.282.468,8.561.959,12.841,1.442.495.056.993.091,1.484.171A3.316,3.316,0,0,1,276.774,386a3.264,3.264,0,0,1-2.794,3.261c-4.1.486-8.214.928-12.321,1.387a4.7,4.7,0,0,1-.521.046,4.406,4.406,0,0,0-3.383,1.508A7.192,7.192,0,0,1,252.439,394.243Z" transform="translate(307.109 -91.929)" fill="#7f22ff"/>
  </g>
</svg>
