<svg xmlns="http://www.w3.org/2000/svg" xmlns:xlink="http://www.w3.org/1999/xlink" width="134.197" height="151.999" viewBox="0 0 134.197 151.999">
  <defs>
    <linearGradient id="linear-gradient" x1="-0.968" y1="1.137" x2="0.989" y2="0.389" gradientUnits="objectBoundingBox">
      <stop offset="0" stop-color="#f63cd1"/>
      <stop offset="0.492" stop-color="#f63cd1"/>
      <stop offset="1" stop-color="#7f22ff"/>
    </linearGradient>
  </defs>
  <path id="icon" d="M218.589,205.381a21.6,21.6,0,0,0-5.913-1.2,22.285,22.285,0,0,0-23.653,20.867c-.031.449-.044.9-.044,1.363a24.112,24.112,0,0,0,.359,4.041,22.272,22.272,0,1,0,29.252-25.074Zm59.566,16.272a65.108,65.108,0,0,0-1.423-9.567v-.015a67.034,67.034,0,0,0-59.506-52.11,66.543,66.543,0,0,0-49.6,15.943,67.644,67.644,0,0,0-12.723,14.582,66.833,66.833,0,0,0,9.162,83.967v-47.68c0-.569.013-1.153.029-1.722a47.205,47.205,0,0,1,50.988-45.3c.823.06,1.631.15,2.441.27a45.91,45.91,0,0,1,16.27,5.344A47.62,47.62,0,0,1,255.385,210.1a45.939,45.939,0,0,1,2.935,13.322,47.2,47.2,0,0,1-68.982,45.15v21.646A66.8,66.8,0,0,0,195.8,292.1a65.489,65.489,0,0,0,13.922,1.768H247.3a8.8,8.8,0,0,1,7.664,4.535,26,26,0,0,0,22.681,13.278h.7V225.92C278.334,224.482,278.259,223.059,278.155,221.653Z" transform="translate(-144.151 -159.682)" fill="url(#linear-gradient)"/>
</svg>
