<svg xmlns="http://www.w3.org/2000/svg" width="77.286" height="70.781" viewBox="0 0 77.286 70.781">
  <path id="link_icon" d="M26.829,47.208a14.84,14.84,0,0,0,6.028,3.377c2.241-2.241,4.45-4.482,6.659-6.691a12.194,12.194,0,0,1-6.312-3c-4.86-4.86-4.892-11.551-.095-16.38L44.155,13.5c4.829-4.8,11.519-4.8,16.348.032,4.86,4.86,4.829,11.519.063,16.38l-1.641,1.673a20.6,20.6,0,0,1,10.636.852l.41-.568c5.081-7.417,4.008-17.516-3.124-24.648-8.363-8.363-20.167-8.363-28.5-.032L26.8,18.709C18.465,27.041,18.5,38.876,26.829,47.208ZM35.6,28.745a12.327,12.327,0,0,1,6.6,3.03,11.447,11.447,0,0,1,3.535,7.7,21.429,21.429,0,0,1,7.89-6.217,21.006,21.006,0,0,0-5.081-7.827,14.108,14.108,0,0,0-6.249-3.345ZM8.524,65.449c8.395,8.363,20.2,8.363,28.5.032l5.081-5.05a21.4,21.4,0,0,1-.978-11.3,16.562,16.562,0,0,1-1.452,1.546l-8.458,8.458c-4.829,4.829-11.519,4.829-16.317,0-4.892-4.892-4.892-11.583-.095-16.38l2.935-2.935c-1.389-3.219-2.083-7.511-.852-11.172l-8.395,8.3C.129,45.219.192,57.086,8.524,65.449Zm54.094,4.545A16.932,16.932,0,1,0,45.67,53.015,17.094,17.094,0,0,0,62.618,69.994Zm0-5.839a2.684,2.684,0,0,1-2.872-2.809V55.918H54.38a2.725,2.725,0,0,1-2.84-2.872,2.651,2.651,0,0,1,2.84-2.84h5.365V44.841A2.725,2.725,0,0,1,62.618,42a2.651,2.651,0,0,1,2.84,2.84v5.365h5.4a2.856,2.856,0,0,1,0,5.712h-5.4v5.428A2.675,2.675,0,0,1,62.618,64.155Z" transform="translate(-2.247 -0.945)" fill="#fff"/>
</svg>
