<svg xmlns="http://www.w3.org/2000/svg" width="75" height="75" viewBox="0 0 75 75">
  <g id="multiple_icon" transform="translate(-489 -544.777)">
    <path id="Path_1257" data-name="Path 1257" d="M43,362.66c.189-.847.325-1.71.576-2.538,2.123-7.02,6.771-11.311,14.013-12.541a17.045,17.045,0,0,1,18.462,10.288c.389.927.316,1.168-.5,1.69a9.214,9.214,0,0,0-4.417,8.021c-.056,2.781-.02,5.563-.005,8.345,0,.656-.152,1.084-.916,1.1-.556.013-.8.4-.843.922q-.377,4.736-.754,9.471c-.186,2.283-.392,4.563-.575,6.846a2.12,2.12,0,0,1-1.02,1.5H53.4A1.974,1.974,0,0,1,52.326,394c0-.583-.086-1.165-.135-1.748q-.347-4.15-.694-8.3c-.161-1.942-.3-3.886-.486-5.825-.091-.952-.3-1.108-1.262-1.109-1.561,0-3.124-.048-4.683.018A2.054,2.054,0,0,1,43,375.99Z" transform="translate(446 224.012)" fill="#7f22ff"/>
    <path id="Path_1258" data-name="Path 1258" d="M271.371,486.7A6.334,6.334,0,0,1,268,484.435a5.384,5.384,0,0,1-1.024-3.135q.011-10.977,0-21.954a5.41,5.41,0,0,1,5.469-5.46q15.55,0,31.1,0a5.409,5.409,0,0,1,5.476,4.16,1.072,1.072,0,0,0,.141.235V482.3a14.048,14.048,0,0,1-.973,2.084,6.484,6.484,0,0,1-3.422,2.311Zm16.7-15.585q-7.578,0-15.156,0c-1.07,0-1.247.176-1.248,1.222q0,4.21,0,8.42c0,1,.251,1.253,1.249,1.253q15.157,0,30.313,0c.994,0,1.249-.256,1.249-1.253q0-4.173,0-8.347c0-1.145-.151-1.3-1.323-1.3Q295.611,471.11,288.069,471.112Zm.076-12.54q-7.648,0-15.3,0c-.907,0-1.177.272-1.184,1.169-.006.756,0,1.513,0,2.269,0,.995.254,1.246,1.253,1.247q3.44,0,6.88,0h23.42c1,0,1.254-.254,1.258-1.243q0-1.061,0-2.122c0-1.089-.233-1.32-1.328-1.32Z" transform="translate(254.836 133.08)" fill="#f63cd1"/>
    <path id="Path_1259" data-name="Path 1259" d="M97.957,165.89c.6.165,1.208.308,1.8.5a10.994,10.994,0,1,1-5.2-.362,1.463,1.463,0,0,0,.323-.138Z" transform="translate(409.793 378.887)" fill="#7f22ff"/>
    <path id="Path_1260" data-name="Path 1260" d="M306.907,185.385a9.4,9.4,0,1,1-10.62-8.855A9.372,9.372,0,0,1,306.907,185.385Z" transform="translate(236.783 369.872)" fill="#7f22ff"/>
    <path id="Path_1261" data-name="Path 1261" d="M288.9,339.494c-3.173,0-6.345-.013-9.517.01a1.227,1.227,0,0,1-1.356-.925,21.087,21.087,0,0,0-3.485-6.21c-.57-.705-.567-.925.057-1.644,3.834-4.413,8.7-6.069,14.323-4.749s9.07,5.048,10.446,10.661a9.7,9.7,0,0,1,.222,1.661c.065.966-.172,1.195-1.173,1.2q-3.917,0-7.834,0Z" transform="translate(248.736 242.628)" fill="#7f22ff"/>
    <path id="Path_1262" data-name="Path 1262" d="M436.38,596.8c-.635,0-1.27.016-1.9,0a2.44,2.44,0,0,1-2.406-2.289,2.337,2.337,0,0,1,2.158-2.422,24.869,24.869,0,0,1,4.387.006,2.275,2.275,0,0,1,2.085,2.532,2.37,2.37,0,0,1-2.342,2.173C437.7,596.821,437.039,596.8,436.38,596.8Z" transform="translate(113.925 15.201)" fill="#f63cd1"/>
  </g>
</svg>
