<svg id="nfc_icon" xmlns="http://www.w3.org/2000/svg" xmlns:xlink="http://www.w3.org/1999/xlink" width="77.92" height="65.753" viewBox="0 0 77.92 65.753">
  <defs>
    <clipPath id="clip-path">
      <rect id="Rectangle_1803" data-name="Rectangle 1803" width="77.92" height="65.753" fill="#fff"/>
    </clipPath>
    <clipPath id="clip-path-2">
      <rect id="Rectangle_1802" data-name="Rectangle 1802" width="77.661" height="65.446" fill="#fff"/>
    </clipPath>
  </defs>
  <g id="Group_4117" data-name="Group 4117" clip-path="url(#clip-path)">
    <g id="Group_4116" data-name="Group 4116" transform="translate(0.259 0.258)">
      <g id="Group_4115" data-name="Group 4115" clip-path="url(#clip-path-2)">
        <g id="Group_4114" data-name="Group 4114">
          <g id="Group_4113" data-name="Group 4113" clip-path="url(#clip-path-2)">
            <path id="Path_8950" data-name="Path 8950" d="M.75,56.653A53.528,53.528,0,0,1,1.8,50.472a15.456,15.456,0,0,1,1.5-3.962c1.3-2.076,3.037-2.459,4.979-.975q11.7,8.941,23.37,17.926c2.355,1.807,2.446,1.777,2.9-1.112.748-4.723-.2-9.224-1.86-13.625a13.1,13.1,0,0,1-1.159-4.856,3.632,3.632,0,0,1,4.3-3.789,2.939,2.939,0,0,1,1.607.748,11.064,11.064,0,0,1,2.932,3.884c4.278,9.206,4.77,18.52.735,27.945a19.584,19.584,0,0,1-1.027,2.078c-1.494,2.589-4.06,3.167-6.452,1.376-4.274-3.2-8.5-6.47-12.752-9.694Q16.961,63.453,13,60.545A26.615,26.615,0,0,0,10.7,59.126c-.591-.348-.86-.134-.9.527a19.031,19.031,0,0,0,.41,4.481,27.051,27.051,0,0,1,.695,5.743,4.653,4.653,0,0,1-.927,2.761,3.185,3.185,0,0,1-4.371.791,7.425,7.425,0,0,1-3.239-4.355A29.179,29.179,0,0,1,.941,61.5a.871.871,0,0,0-.191-.721Z" transform="translate(-0.75 -26.483)" fill="#fff"/>
            <path id="Path_8951" data-name="Path 8951" d="M196.985,37.362c-.251,2.075-.459,4.156-.759,6.224a69.808,69.808,0,0,1-5.22,18.392,16.5,16.5,0,0,1-1.137,2.162,4.291,4.291,0,0,1-5.625,1.573,4.186,4.186,0,0,1-2.081-5.441,71.009,71.009,0,0,0,5.276-18.243,62.372,62.372,0,0,0-3.807-31.6c-.434-1.074-.86-2.153-1.244-3.245-1.141-3.242-.4-4.986,2.689-6.436h2.589a7.457,7.457,0,0,1,3.291,3.986,71.614,71.614,0,0,1,5.276,18.661c.3,2.071.5,4.155.752,6.233Z" transform="translate(-119.324 -0.747)" fill="#fff"/>
            <path id="Path_8952" data-name="Path 8952" d="M152.119,45.484a58.724,58.724,0,0,1-5.179,23.068,5.056,5.056,0,0,1-2.827,3.018,4.131,4.131,0,0,1-4.707-1.139,3.883,3.883,0,0,1-.951-4.58,50.762,50.762,0,0,0,4.528-18.915,47.29,47.29,0,0,0-3.748-19.707c-.232-.554-.469-1.107-.684-1.667a4.4,4.4,0,1,1,7.983-3.7,46.8,46.8,0,0,1,4.05,11.641,47.491,47.491,0,0,1,1.536,11.979" transform="translate(-90.676 -12.885)" fill="#fff"/>
          </g>
        </g>
      </g>
    </g>
  </g>
</svg>
