<svg xmlns="http://www.w3.org/2000/svg" width="137.209" height="155.411" viewBox="0 0 137.209 155.411">
  <path id="p_icon" d="M220.26,206.407a22.085,22.085,0,0,0-6.046-1.224,22.785,22.785,0,0,0-24.184,21.335c-.032.459-.045.919-.045,1.394a24.655,24.655,0,0,0,.367,4.132,22.772,22.772,0,1,0,29.908-25.636Zm60.9,16.638a66.56,66.56,0,0,0-1.455-9.782v-.016a68.539,68.539,0,0,0-60.842-53.28,68.036,68.036,0,0,0-50.709,16.3,69.156,69.156,0,0,0-13.008,14.909,68.333,68.333,0,0,0,9.368,85.852v-48.75c0-.582.014-1.179.029-1.76A48.265,48.265,0,0,1,216.678,180.2c.842.061,1.668.154,2.5.276a46.939,46.939,0,0,1,16.635,5.464,48.689,48.689,0,0,1,22.073,25.286,46.97,46.97,0,0,1,3,13.622,48.259,48.259,0,0,1-70.531,46.164v22.132a68.308,68.308,0,0,0,6.612,1.928,66.954,66.954,0,0,0,14.235,1.808h38.419a8.992,8.992,0,0,1,7.836,4.636,26.584,26.584,0,0,0,23.19,13.576h.717V227.407C281.346,225.936,281.269,224.481,281.163,223.044Z" transform="translate(-144.151 -159.682)" fill="#fff"/>
</svg>
