<svg xmlns="http://www.w3.org/2000/svg" width="69.958" height="69.958" viewBox="0 0 69.958 69.958">
  <path id="qr_icon" d="M12.966,35.156H24.7c7.175,0,10.512-3.336,10.512-10.548V12.985c0-7.211-3.336-10.548-10.512-10.548H12.966C5.827,2.438,2.49,5.774,2.49,12.985V24.609C2.49,31.82,5.827,35.156,12.966,35.156Zm37.239,0H61.937c7.175,0,10.512-3.336,10.512-10.548V12.985c0-7.211-3.336-10.548-10.512-10.548H50.205c-7.139,0-10.476,3.336-10.476,10.548V24.609C39.729,31.82,43.066,35.156,50.205,35.156ZM12.213,27.515c-1.471,0-2.081-.61-2.081-2.081V12.2c0-1.471.61-2.117,2.081-2.117H25.487c1.435,0,2.081.646,2.081,2.117V25.434c0,1.471-.646,2.081-2.081,2.081Zm37.239,0c-1.471,0-2.081-.61-2.081-2.081V12.2c0-1.471.61-2.117,2.081-2.117H62.726c1.435,0,2.081.646,2.081,2.117V25.434c0,1.471-.646,2.081-2.081,2.081ZM15.19,23.281h7.247c.61,0,.9-.251.9-1v-7c0-.682-.287-.969-.9-.969H15.19c-.61,0-.825.287-.825.969v7C14.365,23.03,14.58,23.281,15.19,23.281Zm37.311,0h7.211c.646,0,.9-.251.9-1v-7c0-.682-.251-.969-.9-.969H52.5c-.61,0-.825.287-.825.969v7C51.676,23.03,51.891,23.281,52.5,23.281ZM12.966,72.4H24.7c7.175,0,10.512-3.336,10.512-10.548V50.224c0-7.211-3.336-10.548-10.512-10.548H12.966c-7.139,0-10.476,3.336-10.476,10.548V61.848C2.49,69.059,5.827,72.4,12.966,72.4ZM42.528,50.188h7.211c.646,0,.9-.251.9-.969V42.188c0-.682-.251-.969-.9-.969H42.528c-.61,0-.825.287-.825.969V49.22C41.7,49.937,41.918,50.188,42.528,50.188Zm19.66,0h7.247c.646,0,.9-.251.9-.969V42.188c0-.682-.251-.969-.9-.969H62.188c-.61,0-.825.287-.825.969V49.22C61.363,49.937,61.578,50.188,62.188,50.188ZM12.213,64.754c-1.471,0-2.081-.646-2.081-2.081V49.435c0-1.471.61-2.117,2.081-2.117H25.487c1.435,0,2.081.646,2.081,2.117V62.673c0,1.435-.646,2.081-2.081,2.081Zm40.253-4.7h7.211c.646,0,.9-.287.9-1V52.018c0-.682-.251-.933-.9-.933H52.465c-.61,0-.825.251-.825.933V59.05C51.64,59.767,51.856,60.054,52.465,60.054Zm-37.275.466h7.247c.61,0,.9-.251.9-1v-7c0-.718-.287-.969-.9-.969H15.19c-.61,0-.825.251-.825.969v7C14.365,60.27,14.58,60.521,15.19,60.521Zm27.337,9.364h7.211c.646,0,.9-.251.9-1v-7c0-.682-.251-.969-.9-.969H42.528c-.61,0-.825.287-.825.969v7C41.7,69.633,41.918,69.884,42.528,69.884Zm19.66,0h7.247c.646,0,.9-.251.9-1v-7c0-.682-.251-.969-.9-.969H62.188c-.61,0-.825.287-.825.969v7C61.363,69.633,61.578,69.884,62.188,69.884Z" transform="translate(-2.49 -2.438)" fill="#fff"/>
</svg>
