<svg xmlns="http://www.w3.org/2000/svg" width="75" height="69.958" viewBox="0 0 75 69.958">
  <g id="secure_icon" transform="translate(-904 -259.843)">
    <path id="Path_1254" data-name="Path 1254" d="M124.013,214.728a22.875,22.875,0,0,0-6.807,4.994c-.394.427-.831.265-1.251.2a57.41,57.41,0,0,0-9.585-.653,75.11,75.11,0,0,0-19.816,3.284c-2.041.591-2.071.589-1.923,2.66a81.242,81.242,0,0,1-.777,16,30.179,30.179,0,0,0,.07,5.757,38.767,38.767,0,0,0,2.619,12.366,25.325,25.325,0,0,0,11.939,12.814,47.354,47.354,0,0,0,7.5,3.206,1.3,1.3,0,0,0,.895.092,40.3,40.3,0,0,0,12.292-6.3,24.24,24.24,0,0,0,8.031-11.622c.2-.619.41-.814,1.116-.617a22.06,22.06,0,0,0,5.892.729,32.507,32.507,0,0,1-3.5,8.358,33.408,33.408,0,0,1-14.128,12.671,58.365,58.365,0,0,1-9.379,3.718,1.734,1.734,0,0,1-1.068.078,50.043,50.043,0,0,1-16.03-7.8A31.518,31.518,0,0,1,78.554,256.6a54.7,54.7,0,0,1-1.507-15.085c.08-2.3.487-4.6.7-6.9A55.117,55.117,0,0,0,77.1,219.31c-.1-.552-.005-.781.538-.968a103.647,103.647,0,0,1,21.807-5.328,67.527,67.527,0,0,1,24.035,1.517C123.615,214.564,123.739,214.625,124.013,214.728Z" transform="translate(826.989 47.284)" fill="#7f22ff"/>
    <path id="Path_1255" data-name="Path 1255" d="M324.284,239.4a18.005,18.005,0,1,1-18.26,17.352C306.191,247.226,314.588,239.247,324.284,239.4ZM313.07,257c-.006.277.192.375.323.506,2.755,2.751,5.52,5.493,8.267,8.252.327.329.54.344.9.045q6.374-5.29,12.776-10.547c.376-.309.373-.509.072-.863-.888-1.044-1.765-2.1-2.6-3.188-.364-.476-.592-.467-1.038-.084-3.019,2.593-6.073,5.147-9.092,7.739-.46.395-.668.385-1-.129-1.236-1.9-2.528-3.755-3.774-5.644-.276-.418-.456-.445-.812-.085-1.221,1.234-2.472,2.44-3.71,3.658C313.266,256.774,313.16,256.9,313.07,257Z" transform="translate(636.662 24.933)" fill="#f63cd1"/>
    <path id="Path_1256" data-name="Path 1256" d="M175.212,308.484a22.723,22.723,0,0,0,3.522,2.345c.544.276.3.621.194.974a20.233,20.233,0,0,1-9.058,11.547,38.072,38.072,0,0,1-6.834,3.242,1.238,1.238,0,0,1-.9.1c-4.274-1.587-8.316-3.554-11.519-6.9a22,22,0,0,1-5.507-11.45,44.663,44.663,0,0,1-.807-9.644c.056-2.164.426-4.32.652-6.48a66.813,66.813,0,0,0,.291-8.851c-.018-.618.176-.846.784-1.005a65.515,65.515,0,0,1,18.668-2.436c1.517.046,3.029.221,4.544.323.372.025.523.116.315.5a17.369,17.369,0,0,0-1.425,3.385c-.153.52-.5.449-.853.407-1.373-.167-2.752-.149-4.131-.186-.54-.014-.718.16-.717.712q.022,18.146.011,36.292c0,.336-.069.735.512.494,4.009-1.665,7.641-3.814,9.983-7.619A20.11,20.11,0,0,0,175.212,308.484Z" transform="translate(771.073 -8.797)" fill="#7f22ff"/>
  </g>
</svg>
