<svg id="Twitter" xmlns="http://www.w3.org/2000/svg" xmlns:xlink="http://www.w3.org/1999/xlink" width="30.108" height="30.108" viewBox="0 0 30.108 30.108">
  <defs>
    <clipPath id="clip-path">
      <path id="Path_542" data-name="Path 542" d="M19.827-38.044a7.945,7.945,0,0,1-2.336.656,4.162,4.162,0,0,0,1.789-2.307,8.011,8.011,0,0,1-2.585,1.011A4.011,4.011,0,0,0,13.726-40,4.12,4.12,0,0,0,9.66-35.829a4.256,4.256,0,0,0,.1.95A11.452,11.452,0,0,1,1.38-39.239a4.247,4.247,0,0,0-.55,2.1,4.2,4.2,0,0,0,1.81,3.472A3.994,3.994,0,0,1,.8-34.188v.051a4.147,4.147,0,0,0,3.264,4.09,3.879,3.879,0,0,1-1.072.147,3.951,3.951,0,0,1-.766-.074,4.083,4.083,0,0,0,3.8,2.9A8.032,8.032,0,0,1,.971-25.293,8.141,8.141,0,0,1,0-25.35a11.325,11.325,0,0,0,6.235,1.872c7.483,0,11.573-6.355,11.573-11.867,0-.181,0-.363-.01-.541a8.348,8.348,0,0,0,2.028-2.159" transform="translate(0 40)" fill="none" clip-rule="evenodd"/>
    </clipPath>
    <clipPath id="clip-path-2">
      <path id="Path_541" data-name="Path 541" d="M-300,312.73H132.88V-204H-300Z" transform="translate(300 204)" fill="none"/>
    </clipPath>
  </defs>
  <rect id="Rectangle_8" data-name="Rectangle 8" width="30.108" height="30.108" rx="8" transform="translate(0 0)" fill="#f4f4f4"/>
  <g id="Group_616" data-name="Group 616" transform="translate(5.104 6.727)">
    <g id="Group_615" data-name="Group 615" clip-path="url(#clip-path)">
      <g id="Group_614" data-name="Group 614" transform="translate(-123.916 -67.741)" clip-path="url(#clip-path-2)">
        <path id="Path_540" data-name="Path 540" d="M-5-24.347H18.957V-45H-5Z" transform="translate(126.851 110.676)" fill="#00aaec"/>
      </g>
    </g>
  </g>
</svg>
