<svg id="Youtube" xmlns="http://www.w3.org/2000/svg" xmlns:xlink="http://www.w3.org/1999/xlink" width="30.108" height="30.108" viewBox="0 0 30.108 30.108">
  <defs>
    <clipPath id="clip-path">
      <path id="Path_542" data-name="Path 542" d="M7.216-25.183v-5.147l4.914,2.582Zm10.79-6.038a3.982,3.982,0,0,0-.723-1.818,2.588,2.588,0,0,0-1.822-.776C12.916-34,9.1-34,9.1-34H9.09s-3.818,0-6.363.185A2.589,2.589,0,0,0,.9-33.039a3.979,3.979,0,0,0-.722,1.818A27.9,27.9,0,0,0,0-28.256v1.39A27.889,27.889,0,0,0,.182-23.9,3.979,3.979,0,0,0,.9-22.084,3.07,3.07,0,0,0,2.91-21.3c1.455.141,6.184.184,6.184.184s3.822-.006,6.367-.191a2.592,2.592,0,0,0,1.822-.776,3.982,3.982,0,0,0,.723-1.818,27.889,27.889,0,0,0,.182-2.965v-1.39a27.9,27.9,0,0,0-.182-2.965Z" transform="translate(0 34)" fill="none" clip-rule="evenodd"/>
    </clipPath>
    <clipPath id="clip-path-2">
      <path id="Path_541" data-name="Path 541" d="M-206,56.028H191.108V-418H-206Z" transform="translate(206 418)" fill="none"/>
    </clipPath>
  </defs>
  <rect id="Rectangle_8" data-name="Rectangle 8" width="30.108" height="30.108" rx="8" transform="translate(0 0)" fill="#f4f4f4"/>
  <g id="Group_616" data-name="Group 616" transform="translate(6.022 8.602)">
    <g id="Group_615" data-name="Group 615" clip-path="url(#clip-path)">
      <g id="Group_614" data-name="Group 614" transform="translate(-78.057 -145.505)" clip-path="url(#clip-path-2)">
        <path id="Path_540" data-name="Path 540" d="M-5-22.328H16.977V-39H-5Z" transform="translate(81.163 182.611)" fill="#cd1212"/>
      </g>
    </g>
  </g>
</svg>
